<?xml version="1.0" standalone="no"?>
<!DOCTYPE svg PUBLIC "-//W3C//DTD SVG 20010904//EN"
 "http://www.w3.org/TR/2001/REC-SVG-20010904/DTD/svg10.dtd">
<svg version="1.0" xmlns="http://www.w3.org/2000/svg"
 width="1079.000000pt" height="1079.000000pt" viewBox="0 0 1079.000000 1079.000000"
 preserveAspectRatio="xMidYMid meet">

<g transform="translate(0.000000,1079.000000) scale(0.100000,-0.100000)"
fill="#000000" stroke="none">
<path d="M320 10758 c-11 -18 -20 -46 -20 -62 0 -27 82 -214 99 -226 8 -5 60
-97 94 -165 11 -22 37 -64 58 -94 45 -63 47 -80 16 -116 -19 -22 -37 -28 -117
-41 -153 -22 -181 -30 -208 -57 -30 -31 -33 -88 -5 -120 22 -25 133 -97 205
-133 111 -56 152 -104 177 -209 18 -75 31 -104 52 -110 37 -12 69 -51 71 -87
3 -83 -43 -164 -116 -203 -58 -31 -73 -50 -57 -69 5 -6 19 -37 31 -69 12 -33
28 -71 36 -85 8 -15 14 -40 14 -57 0 -37 -50 -167 -75 -195 -10 -11 -50 -29
-89 -41 -99 -30 -97 -28 -134 -100 -26 -52 -41 -69 -81 -92 -27 -15 -54 -27
-61 -27 -17 0 -82 -31 -98 -47 -13 -13 -43 -17 -89 -13 -23 1 -23 1 -23 -137
l1 -138 19 24 c11 13 20 30 20 38 0 21 41 93 54 94 6 1 0 4 -14 8 -22 7 -14
12 67 51 51 23 93 47 93 52 0 5 9 6 20 3 11 -4 32 -8 48 -10 15 -2 29 -4 32
-4 3 -1 -2 -5 -10 -11 -12 -7 -12 -12 4 -29 11 -12 26 -21 35 -21 9 0 29 -7
44 -15 16 -8 40 -16 55 -18 38 -5 64 -47 74 -119 5 -35 8 -67 8 -73 -10 -115
-13 -125 -28 -125 -33 0 6 -17 46 -19 6 -1 12 -7 12 -15 0 -15 61 -26 146 -26
47 0 58 -4 99 -40 45 -39 69 -48 90 -32 15 11 45 80 45 105 0 29 22 90 40 111
23 29 67 46 113 46 36 0 48 -5 61 -25 31 -48 39 -116 22 -205 -9 -45 -16 -84
-16 -86 0 -3 -18 -24 -40 -48 -41 -45 -70 -109 -70 -156 0 -29 -45 -98 -80
-123 -12 -8 -30 -13 -41 -10 -26 7 -42 -34 -23 -62 8 -11 14 -42 14 -70 0 -46
5 -56 49 -110 54 -66 77 -120 67 -159 -11 -44 -45 -33 -116 39 -66 66 -88 76
-112 51 -8 -7 -28 -17 -44 -20 -24 -5 -34 -2 -51 18 -21 24 -24 25 -156 22
-152 -3 -173 -12 -183 -78 -5 -28 0 -42 28 -78 37 -49 53 -56 141 -65 l58 -7
-7 -33 c-3 -18 -1 -42 5 -53 13 -24 45 -37 63 -26 24 15 49 11 60 -9 9 -17 17
-19 71 -13 33 3 65 12 69 19 6 9 10 9 18 -3 12 -19 3 -69 -17 -92 -12 -14 -14
-35 -8 -115 4 -54 13 -101 19 -105 18 -12 78 -9 139 7 78 20 110 5 157 -77 46
-80 71 -94 152 -89 39 2 -9 181 -58 220 -14 11 -31 36 -40 58 -25 63 -64 146
-95 203 -24 44 -24 79 -2 87 19 6 82 36 136 65 47 25 62 22 107 -21 40 -38 41
-40 39 -102 -1 -35 2 -77 7 -94 7 -27 50 -103 65 -115 10 -8 45 -82 58 -122
17 -51 -5 -92 -56 -108 -21 -7 -48 -23 -61 -36 -13 -13 -29 -24 -36 -24 -8 0
-21 -12 -31 -26 -27 -41 -4 -107 49 -146 56 -40 61 -52 39 -98 -20 -43 -78
-80 -126 -80 -65 0 -77 -16 -113 -148 -2 -7 -16 -17 -31 -22 -16 -6 -38 -16
-51 -23 -17 -10 -39 -11 -82 -5 -39 5 -69 4 -87 -3 -46 -19 -93 -27 -93 -18 0
5 -6 9 -13 9 -7 0 -28 10 -47 23 -19 13 -54 29 -78 36 -73 21 -100 94 -69 183
7 21 16 41 20 44 17 18 3 61 -37 114 -31 41 -43 65 -39 79 3 12 1 21 -6 21 -6
0 -11 7 -11 15 0 10 10 15 34 15 30 0 37 -5 60 -46 14 -26 26 -59 26 -73 0
-21 9 -32 39 -49 39 -22 86 -29 95 -14 6 9 -25 104 -48 147 -9 17 -16 42 -16
57 0 15 -5 30 -10 33 -6 4 -19 24 -30 45 -25 50 -49 62 -101 54 -44 -7 -76
-33 -91 -76 -8 -23 -16 -28 -43 -28 -27 0 -36 5 -47 30 -16 36 -61 54 -121 47
-59 -6 -100 15 -127 67 -19 38 -20 46 -8 67 7 13 18 28 23 32 6 5 -15 6 -45 3
-68 -7 -138 17 -146 51 -3 12 -14 29 -25 39 -19 17 -19 12 -19 -261 l0 -277
24 6 c17 4 26 1 30 -10 12 -31 6 -51 -24 -79 l-30 -29 0 -631 c0 -477 3 -634
12 -643 9 -9 9 -12 0 -12 -19 0 -14 -35 8 -55 11 -10 20 -14 20 -8 0 5 35 17
78 27 82 18 110 14 155 -23 14 -11 24 -12 55 -3 59 18 115 23 150 13 47 -14
159 -92 172 -120 23 -50 71 -100 108 -112 20 -6 48 -17 62 -24 50 -25 76 -34
117 -40 23 -4 44 -13 47 -21 3 -7 -2 -47 -12 -88 -18 -83 -23 -86 -117 -86
-26 0 -48 -6 -55 -15 -7 -8 -21 -15 -32 -15 -11 0 -26 -7 -34 -15 -18 -18 -54
-19 -123 -4 -72 15 -102 56 -102 142 -1 71 -3 74 -93 108 -56 20 -54 19 -88
114 -18 51 -40 52 -50 2 -4 -20 -15 -49 -24 -62 -9 -14 -14 -28 -10 -32 9 -10
-14 -33 -34 -33 -10 0 -44 8 -76 19 -33 10 -76 21 -96 24 l-38 6 0 -100 c0
-91 5 -111 23 -92 30 30 183 -1 217 -44 29 -37 27 -108 -6 -179 -14 -32 -32
-94 -39 -138 -8 -45 -21 -98 -29 -118 -22 -52 -73 -88 -124 -88 l-42 0 0 -115
c0 -115 0 -115 24 -115 29 0 56 -38 56 -78 0 -32 -39 -82 -65 -82 -13 0 -15
-165 -15 -1630 l0 -1630 5395 0 5395 0 0 5370 c0 2993 -4 5370 -9 5370 -4 0
-25 11 -45 25 l-37 25 -2177 -3 c-2009 -2 -2182 -4 -2242 -20 -203 -53 -249
-58 -440 -56 -102 1 -257 -3 -345 -10 -88 -7 -239 -12 -336 -11 -159 1 -309
-10 -699 -50 -52 -5 -131 -12 -175 -15 -44 -4 -134 -15 -200 -25 -66 -10 -178
-26 -250 -35 -71 -9 -166 -25 -210 -37 -70 -18 -118 -21 -375 -24 -162 -2
-318 -7 -346 -12 -34 -6 -64 -5 -85 2 -31 10 -34 15 -37 53 -2 23 6 73 17 111
12 38 21 83 21 101 l0 31 -1240 0 -1240 0 -20 -32z m3464 -734 c26 -10 19 -43
-10 -50 -32 -8 -44 4 -33 34 9 23 17 26 43 16z m60 -21 c-17 -18 -29 -11 -21
11 4 9 13 13 21 10 14 -5 14 -8 0 -21z m669 15 c55 -29 54 -52 -5 -63 -54 -10
-78 1 -78 35 0 39 39 52 83 28z m-950 -31 c23 -26 22 -64 -2 -77 -28 -14 -124
-13 -115 2 4 7 3 8 -5 4 -6 -4 -9 -11 -6 -16 10 -17 -24 -31 -59 -25 -32 6
-34 9 -23 27 7 10 24 22 40 25 15 3 30 10 33 14 3 5 9 7 14 4 5 -3 16 8 25 24
27 53 61 59 98 18z m1145 6 c13 -22 -4 -58 -33 -71 -17 -8 -29 -6 -54 9 -17
10 -31 23 -31 29 0 11 74 48 97 49 7 1 16 -7 21 -16z m-3758 -1448 c7 -8 9
-15 6 -15 -4 0 -14 7 -22 15 -9 8 -11 15 -6 15 5 0 15 -7 22 -15z m119 -149
c32 -34 39 -120 13 -166 -42 -77 -99 -77 -174 1 -63 64 -62 82 7 148 30 29 55
49 55 45 0 -4 5 -3 11 3 15 15 60 -1 88 -31z m5886 -736 c3 -5 17 -10 31 -10
21 0 24 -4 19 -20 -5 -15 0 -21 19 -26 14 -3 23 -10 20 -16 -3 -5 3 -19 14
-31 28 -31 32 -49 34 -174 1 -83 5 -113 15 -117 8 -4 13 -23 13 -53 1 -26 9
-73 20 -103 22 -66 17 -103 -19 -126 -14 -10 -38 -31 -52 -47 -24 -28 -25 -32
-12 -58 8 -16 24 -35 35 -44 l21 -14 -25 -10 c-14 -5 -28 -18 -32 -27 -6 -16
-8 -16 -16 -4 -6 10 -10 11 -10 3 0 -12 -78 -53 -101 -53 -21 0 -78 41 -100
71 l-21 29 21 43 c13 26 21 63 21 93 0 27 9 92 20 144 15 71 19 114 14 170 -6
73 -5 78 32 150 26 52 37 85 35 109 -2 20 1 31 7 27 5 -3 15 1 22 9 8 10 9 15
2 15 -6 0 -9 7 -6 15 9 21 -12 19 -21 -2 -7 -17 -8 -16 -15 2 -18 43 -5 88 15
55z m-6123 -706 c35 -28 47 -71 22 -80 -11 -3 -42 -17 -69 -31 -48 -23 -52
-23 -89 -8 -27 11 -36 20 -32 31 3 9 6 22 6 29 0 7 11 16 25 19 14 4 25 13 25
21 0 8 6 15 14 15 8 0 16 6 19 14 8 20 47 15 79 -10z m4557 -74 c67 -19 149
-118 191 -230 33 -85 33 -216 2 -340 -12 -47 -24 -110 -28 -140 -4 -30 -18
-89 -32 -130 -19 -57 -25 -95 -25 -162 1 -77 4 -94 30 -145 16 -32 40 -92 52
-133 28 -93 51 -141 74 -158 9 -7 17 -22 17 -33 0 -34 56 -86 102 -93 84 -14
122 -31 169 -78 26 -27 52 -48 58 -48 23 0 125 -52 149 -75 29 -30 46 -60 75
-135 18 -49 21 -76 21 -230 -1 -243 -24 -422 -75 -591 -11 -36 -24 -92 -29
-126 -4 -33 -13 -69 -19 -79 -5 -10 -18 -37 -27 -59 -9 -22 -25 -58 -35 -80
-48 -108 -143 -348 -161 -410 -29 -99 -36 -117 -61 -145 -50 -57 -84 -72 -180
-80 -51 -5 -135 -13 -187 -20 -159 -18 -308 3 -469 67 -155 61 -169 74 -97 87
25 5 34 11 29 21 -3 9 1 15 11 15 14 0 14 3 -1 35 -9 19 -19 33 -21 30 -2 -2
-15 12 -29 32 -18 26 -25 51 -26 92 l-2 56 -75 36 c-41 21 -96 47 -121 58 -26
12 -58 32 -72 45 -28 26 -120 76 -141 76 -30 0 -100 46 -121 80 -27 43 -40
129 -25 176 5 19 15 51 21 72 7 20 23 50 36 66 13 16 22 35 19 42 -3 8 4 18
14 24 11 6 20 19 20 29 0 10 18 31 39 45 22 15 42 33 44 40 3 7 30 25 61 39
31 15 56 31 56 36 0 5 23 25 50 45 28 20 48 41 45 46 -3 6 4 14 17 19 21 8 68
54 68 67 0 3 11 22 25 42 17 25 25 49 24 77 0 22 -3 34 -6 28 -6 -16 -33 -17
-33 -3 0 6 -12 0 -26 -14 -15 -13 -39 -27 -55 -30 -15 -3 -36 -14 -46 -24 -10
-10 -45 -32 -78 -49 -33 -16 -69 -34 -80 -40 -11 -5 -65 -32 -120 -59 -55 -27
-102 -51 -105 -54 -11 -11 -73 -40 -86 -40 -8 0 -14 -4 -14 -9 0 -5 -12 -14
-27 -20 -25 -10 -172 -98 -198 -118 -52 -41 -85 -63 -93 -63 -5 0 -15 -7 -23
-16 -26 -32 -209 -115 -419 -191 -200 -72 -339 -70 -489 7 -87 45 -107 84
-117 235 -8 121 -27 180 -70 220 -15 14 -23 25 -19 25 4 0 1 8 -8 18 -23 25
-67 113 -67 133 0 18 37 70 48 66 4 -1 24 11 46 28 31 24 49 30 97 31 35 1 65
-3 76 -11 12 -9 23 -10 36 -4 9 6 22 7 27 4 19 -12 10 27 -14 58 -14 18 -28
44 -31 60 -5 20 -13 27 -30 27 -13 0 -25 -5 -27 -11 -8 -25 -108 -21 -199 7
-98 30 -144 63 -154 109 -6 31 4 50 53 102 26 28 32 99 8 90 -8 -3 -17 1 -20
9 -3 8 -18 14 -34 14 -16 0 -75 16 -133 36 -120 42 -234 54 -318 34 -67 -16
-76 -34 -48 -91 77 -153 55 -197 -114 -219 -46 -6 -103 -14 -125 -19 -23 -4
-55 -6 -70 -4 -32 4 -64 -19 -101 -72 -12 -17 -42 -41 -67 -53 -62 -32 -69
-47 -55 -127 6 -36 8 -78 4 -93 -10 -35 -6 -106 6 -110 5 -2 9 -10 9 -17 0 -8
7 -11 20 -8 11 3 20 0 20 -6 0 -6 -5 -11 -11 -11 -8 0 -7 -5 2 -16 8 -10 12
-43 11 -102 -2 -82 -4 -88 -29 -110 -18 -14 -35 -20 -48 -17 -75 21 -140 25
-174 12 -106 -42 -221 39 -227 159 -4 85 -19 116 -74 158 -53 40 -56 46 -40
75 13 26 33 32 123 41 90 8 121 26 152 86 11 21 68 89 127 151 103 109 107
115 113 168 13 100 -11 195 -48 195 -6 0 -30 9 -54 21 -32 16 -55 20 -91 16
-77 -8 -235 -47 -262 -64 -15 -10 -47 -17 -84 -17 l-60 -1 -7 35 c-7 40 -43
113 -65 131 -8 6 -14 29 -14 54 0 35 6 48 37 80 33 34 44 39 93 42 90 5 114
15 190 79 14 11 42 31 64 43 36 20 50 22 227 21 l189 -2 42 -35 c52 -43 79
-54 116 -47 78 16 209 -41 212 -91 1 -19 1 -19 14 -2 7 9 18 17 24 17 15 0 56
56 80 110 63 140 173 436 187 505 9 43 23 94 32 112 14 31 19 33 65 33 45 0
53 -4 102 -50 28 -27 62 -68 74 -92 28 -53 50 -91 81 -141 13 -21 34 -59 47
-85 47 -93 79 -113 130 -81 42 25 54 47 54 94 0 20 5 57 11 82 13 48 43 74
106 92 49 14 93 49 93 74 0 24 -43 77 -75 94 -11 6 -45 16 -77 22 -59 13 -148
64 -148 86 0 29 13 45 48 56 21 7 39 15 42 18 17 22 74 51 129 65 64 16 163
65 191 95 9 9 28 39 44 66 16 28 47 68 69 90 40 40 41 40 117 40 73 0 78 -1
128 -40 29 -21 73 -70 98 -108 51 -75 71 -87 147 -87 43 0 59 -5 89 -30 31
-26 41 -47 77 -154 23 -68 41 -132 41 -141 0 -18 46 -111 57 -117 4 -1 34 -33
66 -70 61 -70 132 -114 166 -103 22 7 33 32 55 130 22 94 100 247 146 283 71
58 98 67 194 64 114 -3 142 13 185 101 16 34 33 74 36 89 4 15 27 45 51 68 42
38 46 40 110 40 58 0 73 4 125 36 80 50 129 61 188 44z m-4987 -855 c5 -20 2
-48 -10 -85 -12 -41 -17 -89 -16 -185 1 -126 2 -132 33 -195 18 -36 41 -74 51
-85 18 -20 23 -45 21 -95 -1 -28 -42 -52 -76 -46 -11 2 -36 6 -56 10 -21 4
-51 13 -67 22 -33 16 -67 18 -125 8 -51 -8 -80 18 -97 90 -14 58 -13 69 20
196 29 110 51 156 108 220 26 29 61 74 77 99 29 45 86 84 114 79 8 -2 18 -16
23 -33z m72 -1010 c9 -9 20 -33 26 -55 12 -46 51 -80 91 -80 15 0 31 -5 34
-10 4 -6 11 -8 16 -4 5 3 17 0 26 -8 9 -7 18 -12 20 -10 11 9 31 -18 36 -52 3
-21 3 -36 0 -32 -3 3 -11 -4 -17 -17 -7 -12 -18 -22 -26 -23 -8 0 -27 -5 -42
-12 -39 -16 -78 0 -78 32 0 16 -14 36 -42 60 -35 30 -49 36 -89 36 -39 0 -51
5 -78 32 -41 42 -40 71 5 111 57 50 91 59 118 32z m6079 -263 c-2 -6 3 -9 11
-6 27 10 33 -19 24 -111 -14 -145 -43 -203 -103 -208 -39 -3 -45 26 -29 146
14 112 28 154 55 162 10 4 19 13 19 22 0 8 6 13 13 10 6 -2 11 -9 10 -15z
m1039 -94 c35 -18 66 -36 69 -40 9 -14 112 -46 184 -59 68 -12 126 -39 154
-73 8 -9 9 -16 3 -16 -6 0 -14 -9 -17 -20 -9 -28 -41 -43 -100 -46 -156 -9
-201 -17 -221 -36 -21 -19 -22 -19 -53 13 -27 26 -31 37 -26 61 5 20 2 35 -8
46 -16 19 -48 86 -68 145 -12 33 -11 39 1 47 19 12 11 15 82 -22z m-5985 -220
c-3 -7 -5 -2 -5 12 0 14 2 19 5 13 2 -7 2 -19 0 -25z m5190 -117 c-3 -16 -19
-49 -36 -73 -26 -38 -37 -46 -81 -56 -28 -7 -71 -12 -96 -12 -32 0 -44 -4 -44
-15 0 -8 -9 -15 -20 -15 -11 0 -20 -4 -20 -9 0 -5 -6 -11 -13 -14 -10 -4 -14
5 -15 29 -1 21 4 37 12 40 8 3 17 16 20 29 3 12 22 37 42 54 27 24 44 31 72
31 41 -1 99 11 128 28 10 6 27 12 38 12 15 0 17 -5 13 -29z m338 -24 c27 -42
29 -106 5 -169 -12 -32 -26 -58 -31 -58 -5 0 -20 -9 -32 -20 -16 -15 -32 -20
-62 -18 -39 3 -40 4 -49 52 -8 39 -7 51 5 60 19 15 69 93 69 107 0 13 58 69
72 69 4 0 14 -10 23 -23z m1710 -144 c51 -25 155 -118 155 -139 0 -6 9 -19 20
-29 11 -10 20 -22 20 -27 0 -9 60 -68 70 -68 3 0 14 19 25 41 l19 41 56 -5
c36 -3 80 -17 126 -41 39 -20 74 -36 78 -36 11 0 141 -86 155 -103 7 -10 18
-17 23 -17 5 0 33 -15 61 -34 29 -18 84 -48 122 -66 79 -37 115 -64 270 -203
128 -116 149 -138 176 -191 22 -41 20 -94 -4 -115 -7 -6 -24 -34 -36 -63 -36
-81 -36 -82 -70 -105 -54 -36 -124 -15 -156 47 -28 55 -93 110 -188 160 -54
29 -101 59 -104 66 -3 7 -35 30 -71 51 -37 20 -79 48 -93 62 -25 25 -60 85
-73 124 -3 10 -19 23 -36 28 -16 6 -29 14 -29 17 3 20 -3 23 -18 9 -24 -20
-37 -22 -108 -13 -95 11 -157 27 -197 49 -37 20 -95 87 -151 175 -15 23 -39
47 -53 52 -33 13 -32 13 -37 -12 l-4 -23 -8 23 c-4 12 -11 22 -16 22 -12 0
-44 27 -87 73 -19 20 -41 37 -49 37 -19 0 -83 52 -83 68 0 6 -8 20 -17 30 -29
29 -43 79 -32 111 10 29 11 29 84 26 41 -2 78 -6 83 -9 6 -3 15 1 22 9 17 21
88 11 155 -22z m-2016 -240 c-1 -26 -27 -91 -28 -70 -1 9 -5 17 -10 17 -16 0
-23 40 -11 55 17 21 50 19 49 -2z m39 -144 c39 -39 62 -103 62 -174 0 -58 -48
-147 -109 -203 -15 -13 -44 -40 -66 -60 -58 -54 -121 -102 -134 -102 -14 0
-51 -73 -51 -100 0 -30 35 -59 79 -66 73 -12 58 -70 -30 -109 l-39 -18 -45 32
c-24 17 -57 45 -74 61 -16 17 -36 30 -44 30 -8 0 -22 9 -32 20 -10 11 -22 20
-26 20 -11 0 -59 45 -59 56 0 16 -44 54 -62 54 -33 0 -94 38 -108 67 -25 53
-30 174 -8 201 8 9 27 56 43 105 15 48 32 87 37 87 4 0 13 11 19 24 12 25 61
42 83 29 6 -4 16 -8 21 -8 25 0 16 -75 -18 -169 -11 -31 -10 -107 1 -116 8 -6
32 -66 39 -98 5 -20 10 -23 39 -19 33 5 94 52 94 73 0 6 20 25 44 42 35 25 53
50 88 124 45 93 57 152 39 187 -8 14 -5 23 12 39 27 25 47 30 115 29 47 0 57
-4 90 -38z m388 -966 c4 -16 10 -30 14 -33 12 -10 49 -108 56 -148 8 -50 -6
-72 -46 -72 -29 0 -100 61 -100 87 0 4 -11 16 -25 28 -65 52 -17 162 72 164
17 1 24 -6 29 -26z"/>
<path d="M425 9370 c-27 -11 -67 -19 -89 -20 -45 0 -141 -54 -180 -101 -29
-34 -82 -59 -126 -59 l-30 0 0 -189 0 -189 143 2 c78 1 148 5 155 9 6 5 12 19
12 33 0 61 81 169 173 228 24 16 27 24 27 74 0 41 6 66 26 100 41 70 47 99 21
117 -28 19 -70 18 -132 -5z"/>
<path d="M340 7733 c-8 -3 -38 -27 -65 -53 -61 -56 -107 -70 -157 -44 -18 9
-35 20 -38 23 -10 14 -55 41 -67 41 -10 0 -13 -74 -13 -357 l1 -358 27 35 c15
19 51 58 80 87 28 28 53 58 53 65 1 7 3 57 5 111 2 89 5 103 31 140 15 23 35
49 43 57 30 30 80 99 80 110 0 7 11 25 25 42 28 33 40 70 31 93 -6 16 -11 17
-36 8z"/>
<path d="M260 7163 c-36 -14 -41 -60 -7 -72 29 -11 62 5 64 32 3 37 -20 54
-57 40z"/>
<path d="M0 4605 c0 -29 15 -33 29 -6 11 20 5 31 -16 31 -7 0 -13 -11 -13 -25z"/>
<path d="M0 3935 c0 -57 12 -65 38 -24 11 16 10 25 -5 49 -9 17 -21 30 -25 30
-4 0 -8 -25 -8 -55z"/>
</g>
</svg>
